<?xml version="1.0" encoding="UTF-8"?>
<svg id="Layer_1" data-name="Layer 1" xmlns="http://www.w3.org/2000/svg" viewBox="0 0 753.37 830.97">
  <defs>
    <style>
      .cls-1 {
        fill: #fff;
        stroke-width: 0px;
      }
    </style>
  </defs>
  <path class="cls-1" d="m649.51,614.24s0,0,0,0h0c.19,0,.39,0,.58,0,.15-.35.29-.7.39-1.03-.38.21-.71.53-.97,1.03Z"/>
  <path class="cls-1" d="m674.67,632.41c.19,0,.38,0,.56,0-.09-.05-.17-.1-.26-.15-.1.05-.2.1-.3.14Z"/>
  <path class="cls-1" d="m546.57,617.5c0-.07,0-.14,0-.21-.06,0-.13,0-.19,0,.06.07.13.14.19.21Z"/>
  <path class="cls-1" d="m751.23,827.55h0c-16.14-16.98-32.23-34.01-48.48-50.89-3.08-3.2-5.07-6.63-6.23-10.92-3.73-13.83-7.79-27.57-11.72-41.34-8.38-33.47-17.47-66.74-27.32-99.8h0s0,0,0,0c.21-.52.1-.98-.31-1.36-.09-.49-.18-.99-.27-1.48-1.02-4.78-1.87-9.6-4.03-14.05,0,0,0,0,0,0-1.37-7.67-3.37-15.17-6.14-22.46-2.78-12.9-6.24-25.62-10.45-38.13-1.36-7.66-3.44-15.13-6.06-22.45,0,0,0,0,0,0,0,0,0,0,0,0-.47-.5-.94-1-1.4-1.5,0,0,0,0,0,0,0,0,0,0,0,0-.56-10.55-4.12-20.36-7.3-30.26-.06-.5-.24-1.04-.5-1.55-1.84-9.31-4.21-18.48-7.51-27.39,0,0,0,0,0,0-1.31-7.7-3.37-15.19-6.13-22.5h0c.07-2.13-.43-4.1-1.61-5.88.09-1.78-.13-3.47-1.37-4.88,0,0,0,0,0,0,0,0,0,0,0,0-.4-4.1-1.46-8.02-3.15-11.78-.09-.5-.18-1.01-.27-1.51-.23-.93-.47-1.85-.7-2.78-.23-.58-.45-1.15-.68-1.73-.89-5.3-2.16-10.5-4.28-15.46-1.39-7.37-3.15-14.64-5.96-21.62,0,0,0,0,0,0-1.35-7.65-3.3-15.13-6.12-22.38,0,0,0,0,0,0-2.26-11.28-5.36-22.33-9.1-33.21-.33-4.13-1.41-8.06-3.21-11.79-8.39-33.55-17.59-66.87-27.35-100.05-1.75-8.92-4.08-17.67-7.22-26.21,0,0,0,0,0,0-2.33-7.4-2.76-15.32-6.13-22.44,0,0,0,0,0,0-.76-5.22-2.14-10.27-4.02-15.19-.07-.48-.29-.97-.53-1.43-1.34-7.4-3.19-14.66-5.96-21.67,0,0,0,0,0,0-.38-4.51-1.73-8.77-3.43-12.93h0s0,0,0,0c-4.46-16.76-8.9-33.52-13.4-50.27C492.8,20.78,465.62.01,426.65,0c-74.64-.01-149.27,0-223.91,0h-8.6c2.61,2.88,4.18,4.71,5.86,6.45,15.43,15.95,30.8,31.95,46.38,47.75,3.18,3.22,4.07,5.97,2.71,10.57-4.14,13.97-7.55,28.16-11.25,42.26h0c-2.13,5.34-3.69,10.83-4.51,16.53h0c-2.81,7.29-4.76,14.82-6.16,22.49-2.82,7.28-4.81,14.8-6.17,22.48-2.73,6.96-4.56,14.17-5.89,21.51-1.74,6.09-3.47,12.17-5.21,18.26-8.97,32.8-17.94,65.61-26.91,98.41-3.92,12.47-7.56,25.01-10.22,37.82-2.86,7.26-4.8,14.78-6.15,22.45-1.48,1.71-1.52,3.81-1.65,5.9-1.28,1.38-1.33,3.1-1.33,4.84-1.85,3.72-2.78,7.69-3.21,11.79,0,0,0,0,0,0-1.27,1.39-1.35,3.12-1.35,4.87h0c-1.42,1.69-1.53,3.74-1.57,5.8-2.16,5.11-3.62,10.41-4.32,15.92h0s0,0,0,0c-.32.42-.36.86-.12,1.32t0,0c-.49,1.44-.99,2.88-1.48,4.32,0,0,0,0,0,0-1.51,1.7-1.52,3.81-1.61,5.9,0,0,0,0,0,0-1.59,1.83-1.42,4.14-1.73,6.31,0,0,0,0,0,0-1.31,4.06-2.62,8.13-3.93,12.19-.16,1.39-.33,2.77-.49,4.16,0,0,0,0,0,0-1.3,1.33-1.33,3.03-1.34,4.73-.19.3-.31.57-.4.84-1.64,3.51-2.46,7.24-2.79,11.1,0,0,0,0,0,0-1.3,1.31-1.36,2.99-1.37,4.68,0,0,0,0,0,0-1.34,1.24-1.36,2.9-1.47,4.54,0,0,0,0,0,0,0,0,0,0,0,0H57c13.72,17.34,26,32.86,38.27,48.37,0,0,0,0,0,0,0,0,0,0,0,0,0,0,.23.31.23.31l.38-.05c-.2.91.24,1.39,1.06,1.64,4.62,6.92,9.7,13.48,15.34,19.61,1.27,2.74,4.14,4.96,2.82,8.55,0,0,0,0,0,0-2.19,5.33-3.79,10.82-4.5,16.55-2.55,5.29-4.17,10.83-4.59,16.71-.05.1-.09.21-.13.33-2.15,5.25-3.7,10.66-4.43,16.3-2.62,6.01-3.92,12.4-5.36,18.76h0s0,0,0,0c-.09.48-.18.96-.27,1.44-.38.39-.47.84-.27,1.35h0s0,0,0,0c-3.72,10.88-6.85,21.93-9.1,33.21-1.28,1.39-1.49,3.08-1.37,4.86-1.76,3.74-2.87,7.66-3.19,11.79,0,0,0,0,0,0-5.25,15.94-9.5,32.16-13.37,48.49h0c-3.69,13.07-7.52,26.11-10.99,39.24-1.46,5.52-3.94,10.05-8.01,14.16-15.41,15.6-30.56,31.46-45.73,47.29-1.46,1.52-3.75,2.58-3.81,5.15.32.19.51.41.71.41,73.35.07,146.69.1,220.04.28,3.98,0,5.12-1.82,5.99-5.07,9.08-33.79,18.24-67.55,27.39-101.32,0,0,0,0,0,0h0c.62-2.49,1.24-4.99,1.86-7.48.38-.33.46-.73.24-1.18,1.68-2.92,2.32-6.14,2.71-9.43,3.07-9.44,5.93-18.94,7.75-28.72,3.27-11.66,6.33-23.4,10.92-34.64,6.46-.04,12.92-.08,19.38-.13h0s0,0,0,0c35.32.6,70.64.67,105.96,0,24.13.04,48.26.07,72.4.11,3.17,3.03,2.14,7.8,4.6,11.12h0c5.47,23.69,12.34,47,18.96,70.38h0s0,0,0,0c9.3,34.29,18.61,68.58,27.91,102.87.31,1.16.3,2.54,1.84,2.93,1.24.15,2.48.43,3.72.43,71.92.02,143.84.02,215.77.02,1.26,0,2.71.36,3.73-.14,3.32-1.61.19-2.21-.65-3.15Zm-584.42-201.05c-.06-.07-.13-.14-.19-.21.06,0,.13,0,.19,0,0,.07,0,.14,0,.21Zm84.73-103.28s0-.02.01-.03c.01,0,.03.02.04.03h-.05Zm5.17-103.99c-.2-.11-.39-.2-.59-.31h.68c-.04.11-.06.21-.09.31Zm5.33-13.97s.05-.07.07-.1c.02.05.04.08.06.13-.04,0-.09-.02-.13-.03Zm8.28,217.98c-.19,0-.39,0-.58,0h0s0,0,0,0c.26-.5.59-.82.97-1.03-.11.33-.25.68-.39,1.03Zm.94-100.03h0s0,0,0,0c0-.03,0-.05,0-.07.04.03.07.05.11.08h-.11Zm1.3-127.01c.06-.13.1-.24.15-.36.02.12.05.23.06.36h-.21Zm22.34,245.2c.1-.04.2-.09.3-.14.09.05.17.09.26.15-.19,0-.38,0-.56,0Zm15.35-270.9c.12-.18.22-.35.32-.52.01.16.04.32.04.49-.12.01-.24.02-.36.04Zm6.16,7.55c.08-.13.17-.25.25-.38,0,.12.01.23,0,.36-.08,0-.17.01-.25.02Zm6.05,149.72c.59-.43,1.25-.9,1.44.63,0,.02.01.04.01.06-.48-.24-.97-.47-1.46-.69Zm1.8-63.17c-.01-.1-.02-.19-.03-.29.07,0,.14,0,.22,0-.06.1-.12.2-.19.29Zm33.27,14.86c-.02.16-.03.31-.04.46-.24-.15-.47-.31-.71-.46h.75s0,0,0,0Zm23.73,40.86c.02-.13.05-.26.07-.38.14.13.28.25.42.38h-.49Zm3.28-18.2c0-.11.02-.21.02-.32.07.12.14.23.21.36-.08,0-.15-.03-.23-.04Zm2.92,90.61c.08-.03.15-.04.24-.07.03.11.07.21.1.32-.12-.08-.22-.17-.34-.25Zm39.41-117.54c-1.22,1.08-2.49,1.99-4.25,1.33-28.44.03-56.89.09-85.33.08-9.44,0-11.62-2.39-11.7-12.3.98-3.55,34.34-132.11,38.75-147.83.82-2.9,1.39-5.91,3.92-7.96,6.74-6.79,10.23-6.82,16.83-.13,3.44,12.11,35.95,126.88,39.13,135.72,1.2,5.66,3.22,11.1,4.51,16.74,1.32,5.03,2.39,10.04-1.86,14.35Zm6.04,108.36c.08,0,.15,0,.23-.02.02.12.05.24.07.36-.1-.12-.2-.23-.3-.35Zm27.67-150.91s-.08-.08-.12-.12c.07,0,.13,0,.19.01-.03.04-.05.07-.07.11Zm7.8-55.83c-.11-.1-.24-.19-.35-.29.15,0,.29,0,.43,0-.04.1-.05.19-.08.29Zm11.94,81.66c-.06-.07-.13-.14-.18-.21.09-.02.18-.02.28-.03-.04.09-.06.16-.09.25Zm15.02,46.81s-.05-.07-.07-.1c.03,0,.06,0,.09.01,0,.03-.01.06-.02.09Zm6.83,24.62c.11-.08.22-.14.33-.22,0,.12,0,.24,0,.35-.11-.04-.22-.09-.33-.13Zm46.11,17.73s-.02-.04-.03-.07c.02,0,.04,0,.06.01-.01.02-.02.04-.03.05Z"/>
</svg>