<?xml version="1.0" encoding="UTF-8"?>
<svg id="Layer_2" data-name="Layer 2" xmlns="http://www.w3.org/2000/svg" viewBox="0 0 497.61 548.86">
  <defs>
    <style>
      .cls-1 {
        fill: #fff;
        stroke-width: 0px;
      }
    </style>
  </defs>
  <g id="Layer_1-2" data-name="Layer 1">
    <g>
      <path class="cls-1" d="m429.01,405.71s0,0,0,0h0c.13,0,.26,0,.38,0,.1-.23.19-.46.26-.68-.25.14-.47.35-.64.68Z"/>
      <path class="cls-1" d="m445.63,417.71c.12,0,.25,0,.37,0-.06-.04-.12-.06-.17-.1-.07.03-.13.06-.2.09Z"/>
      <path class="cls-1" d="m361.02,407.87s0-.09,0-.14c-.04,0-.08,0-.13,0,.04.05.08.09.12.14Z"/>
      <path class="cls-1" d="m496.19,546.61h0c-10.66-11.22-21.29-22.47-32.02-33.61-2.03-2.11-3.35-4.38-4.11-7.21-2.46-9.13-5.14-18.21-7.74-27.31-5.54-22.1-11.54-44.08-18.05-65.92h0s0,0,0,0c.14-.35.07-.65-.2-.9-.06-.33-.12-.65-.18-.98-.67-3.16-1.24-6.34-2.66-9.28,0,0,0,0,0,0-.9-5.07-2.22-10.02-4.06-14.84-1.84-8.52-4.12-16.92-6.9-25.18-.9-5.06-2.27-9.99-4-14.83,0,0,0,0,0,0,0,0,0,0,0,0-.31-.33-.62-.66-.93-.99,0,0,0,0,0,0,0,0,0,0,0,0-.37-6.97-2.72-13.45-4.82-19.99-.04-.33-.16-.69-.33-1.03-1.21-6.15-2.78-12.2-4.96-18.09,0,0,0,0,0,0-.86-5.09-2.23-10.04-4.05-14.86h0c.05-1.4-.28-2.71-1.06-3.88.06-1.17-.08-2.29-.9-3.22,0,0,0,0,0,0,0,0,0,0,0,0-.26-2.71-.96-5.3-2.08-7.78-.06-.33-.12-.67-.18-1-.15-.61-.31-1.23-.46-1.84-.15-.38-.3-.76-.45-1.14-.58-3.5-1.42-6.93-2.83-10.21-.92-4.87-2.08-9.67-3.94-14.28,0,0,0,0,0,0-.89-5.05-2.18-10-4.04-14.78,0,0,0,0,0,0-1.49-7.45-3.54-14.75-6.01-21.93-.22-2.73-.93-5.32-2.12-7.79-5.54-22.16-11.62-44.17-18.06-66.08-1.15-5.89-2.7-11.67-4.77-17.31,0,0,0,0,0,0-1.54-4.89-1.82-10.12-4.05-14.82,0,0,0,0,0,0-.5-3.45-1.42-6.79-2.66-10.03-.04-.32-.19-.64-.35-.94-.89-4.89-2.1-9.69-3.94-14.31,0,0,0,0,0,0-.25-2.98-1.14-5.79-2.27-8.54h0s0,0,0,0c-2.95-11.07-5.88-22.14-8.85-33.2C325.5,13.72,307.55,0,281.81,0c-49.3,0-98.6,0-147.9,0h-5.68c1.72,1.9,2.76,3.11,3.87,4.26,10.19,10.53,20.35,21.1,30.64,31.54,2.1,2.13,2.69,3.94,1.79,6.98-2.74,9.23-4.99,18.6-7.43,27.91h0c-1.4,3.53-2.44,7.16-2.98,10.92h0c-1.85,4.82-3.15,9.79-4.07,14.86-1.86,4.81-3.17,9.77-4.08,14.85-1.8,4.6-3.01,9.36-3.89,14.21-1.15,4.02-2.29,8.04-3.44,12.06-5.92,21.67-11.85,43.33-17.77,65-2.59,8.24-4.99,16.52-6.75,24.98-1.89,4.8-3.17,9.76-4.06,14.83-.98,1.13-1,2.52-1.09,3.89-.84.91-.88,2.05-.88,3.2-1.22,2.46-1.84,5.08-2.12,7.79,0,0,0,0,0,0-.84.92-.89,2.06-.89,3.21h0c-.94,1.12-1.01,2.47-1.04,3.83-1.43,3.38-2.39,6.88-2.86,10.51h0s0,0,0,0c-.21.27-.24.57-.08.87t0,0c-.33.95-.65,1.9-.98,2.86,0,0,0,0,0,0-1,1.12-1,2.52-1.06,3.9,0,0,0,0,0,0-1.05,1.21-.94,2.73-1.14,4.17,0,0,0,0,0,0-.87,2.68-1.73,5.37-2.6,8.05-.11.92-.22,1.83-.32,2.75,0,0,0,0,0,0-.86.88-.88,2-.88,3.12-.12.2-.2.38-.26.55-1.08,2.32-1.63,4.78-1.84,7.33,0,0,0,0,0,0-.86.87-.9,1.97-.9,3.09,0,0,0,0,0,0-.89.82-.9,1.92-.97,3,0,0,0,0,0,0,0,0,0,0,0,0h-52.5c9.06,11.46,17.17,21.7,25.28,31.95,0,0,0,0,0,0,0,0,0,0,0,0,0,0,.15.2.15.2l.25-.03c-.13.6.16.92.7,1.08,3.05,4.57,6.41,8.91,10.13,12.95.84,1.81,2.74,3.27,1.86,5.65,0,0,0,0,0,0-1.44,3.52-2.5,7.15-2.97,10.93-1.68,3.49-2.76,7.15-3.03,11.03-.03.07-.06.14-.08.22-1.42,3.47-2.44,7.04-2.92,10.76-1.73,3.97-2.59,8.19-3.54,12.39h0s0,0,0,0c-.06.32-.12.63-.18.95-.25.26-.31.56-.18.89h0s0,0,0,0c-2.46,7.19-4.53,14.48-6.01,21.94-.84.92-.98,2.04-.9,3.21-1.16,2.47-1.9,5.06-2.11,7.79,0,0,0,0,0,0-3.47,10.53-6.27,21.24-8.83,32.03h0c-2.43,8.63-4.97,17.24-7.26,25.92-.96,3.65-2.6,6.64-5.29,9.35-10.18,10.3-20.18,20.78-30.21,31.24-.96,1-2.48,1.7-2.52,3.4.21.13.34.27.47.27,48.45.05,96.89.06,145.34.18,2.63,0,3.38-1.2,3.96-3.35,6-22.32,12.05-44.62,18.09-66.92,0,0,0,0,0,0h0c.41-1.65.82-3.29,1.23-4.94.25-.22.31-.48.16-.78,1.11-1.93,1.53-4.06,1.79-6.23,2.03-6.24,3.92-12.51,5.12-18.97,2.16-7.7,4.18-15.45,7.21-22.88,4.27-.03,8.54-.06,12.8-.08h0s0,0,0,0c23.33.4,46.66.45,69.99,0,15.94.02,31.88.05,47.82.07,2.1,2,1.41,5.15,3.04,7.34h0c3.62,15.65,8.15,31.05,12.52,46.49h0s0,0,0,0c6.15,22.65,12.29,45.3,18.44,67.95.21.76.2,1.68,1.22,1.93.82.1,1.64.28,2.46.28,47.51.02,95.01.02,142.52.02.83,0,1.79.24,2.47-.09,2.19-1.06.12-1.46-.43-2.08ZM110.18,413.81s-.08-.09-.12-.14c.04,0,.08,0,.13,0,0,.05,0,.09,0,.14Zm55.96-68.22s0-.01,0-.02c0,0,.02.01.02.02h-.03Zm3.42-68.68c-.13-.07-.26-.13-.39-.2h.45c-.03.07-.04.14-.06.2Zm3.52-9.23s.03-.04.05-.07c.01.03.03.06.04.09-.03,0-.06-.01-.09-.02Zm5.47,143.98c-.13,0-.26,0-.38,0h0s0,0,0,0c.17-.33.39-.54.64-.68-.07.22-.16.45-.26.68Zm.62-66.07h0s0,0,0,0c0-.02,0-.03,0-.05.02.02.05.03.07.05h-.08Zm.86-83.89c.04-.08.07-.16.1-.24.01.08.03.15.04.24h-.14Zm14.76,161.96c.07-.03.13-.06.2-.09.06.03.12.06.17.1-.12,0-.25,0-.37,0Zm10.14-178.93c.08-.12.14-.23.21-.35,0,.11.03.21.03.32-.08,0-.16.02-.23.03Zm4.07,4.98c.06-.08.11-.17.16-.25,0,.08,0,.15,0,.24-.06,0-.11,0-.17.01Zm4,98.89c.39-.29.83-.6.95.41,0,.01,0,.03,0,.04-.32-.16-.64-.31-.96-.45Zm1.19-41.72c0-.06-.01-.12-.02-.19.05,0,.1,0,.14,0-.04.06-.08.13-.12.19Zm21.98,9.81c-.01.11-.02.2-.03.3-.16-.1-.31-.2-.47-.3h.5s0,0,0,0Zm15.68,26.99c.02-.08.03-.17.05-.25.09.08.19.16.28.25h-.32Zm2.17-12.02c0-.07.01-.14.02-.21.05.08.09.15.14.23-.05,0-.1-.02-.15-.02Zm1.93,59.85c.05-.02.1-.03.16-.05.02.07.05.14.07.21-.08-.05-.15-.11-.22-.16Zm26.03-77.64c-.8.71-1.64,1.32-2.81.88-18.79.02-37.58.06-56.36.05-6.23,0-7.67-1.58-7.72-8.12.65-2.35,22.68-87.26,25.6-97.64.54-1.92.92-3.9,2.59-5.26,4.45-4.48,6.76-4.5,11.12-.09,2.27,8,23.74,83.8,25.84,89.65.79,3.74,2.13,7.33,2.98,11.05.87,3.32,1.58,6.63-1.23,9.48Zm3.99,71.57c.05,0,.1,0,.15-.01.02.08.03.16.05.24-.07-.08-.13-.15-.2-.23Zm18.28-99.67s-.05-.05-.08-.08c.04,0,.09,0,.13,0-.02.02-.03.05-.05.07Zm5.15-36.88c-.08-.07-.16-.12-.23-.19.1,0,.19,0,.29,0-.02.07-.03.13-.05.19Zm7.89,53.94s-.08-.09-.12-.14c.06-.01.12-.01.18-.02-.03.06-.04.11-.06.16Zm9.92,30.92s-.03-.04-.05-.07c.02,0,.04,0,.06,0,0,.02,0,.04-.01.06Zm4.51,16.26c.07-.05.14-.09.22-.14,0,.08,0,.16,0,.23-.07-.03-.15-.06-.22-.09Zm30.45,11.71s-.01-.03-.02-.04c.01,0,.03,0,.04,0,0,.01-.01.02-.02.04Z"/>
    </g>
  </g>
</svg>